# xmcd
#
# Track frame offsets: 
#        180
#        23297
#        43726
#        62182
#        80565
#        101205
#        122168
#        142879
#        168355
#        191628
#
# Disc length: 2840 seconds
#
# Revision: 0
# Processed by: cddbd v1.5.1PL0 Copyright (c) Steve Scherf et al.
# Submitted via: ExactAudioCopy v0.95a5
#
DISCID=830b160a
DTITLE=Jusepe y su orquestra - Salsa
DYEAR=1997
DGENRE=Salsa
TTITLE0=To como estas
TTITLE1=Mi cuerpo
TTITLE2=Sola
TTITLE3=Te amo
TTITLE4=Gente de cabaret
TTITLE5=Como yo te ame
TTITLE6=Jamas
TTITLE7=Gotas de lluvia
TTITLE8=Se acabo
TTITLE9=Talento de TV
EXTD=
EXTT0=
EXTT1=
EXTT2=
EXTT3=
EXTT4=
EXTT5=
EXTT6=
EXTT7=
EXTT8=
EXTT9=
PLAYORDER=
